HIERARCHY
ROOT Hips
{
	OFFSET 50.209099 -11.300817 100.556999
	CHANNELS 6 Xposition Yposition Zposition Xrotation Yrotation Zrotation
	JOINT spine
	{
		OFFSET 0.000000 -0.507026 8.817039
		CHANNELS 3 Xrotation Yrotation Zrotation
		JOINT spine1
		{
			OFFSET 0.000000 -0.000002 10.776596
			CHANNELS 3 Xrotation Yrotation Zrotation
			JOINT spine2
			{
				OFFSET 0.000000 -0.000001 10.325897
				CHANNELS 3 Xrotation Yrotation Zrotation
				JOINT Neck
				{
					OFFSET 0.000000 -1.263955 26.511002
					CHANNELS 3 Xrotation Yrotation Zrotation
					JOINT Head
					{
						OFFSET 0.000000 -0.000001 8.009659
						CHANNELS 3 Xrotation Yrotation Zrotation
						End Site
						{
							OFFSET 0.000000 6.393857 19.387894
						}
					}
				}
				JOINT RightShoulder
				{
					OFFSET -4.347950 0.605420 11.151199
					CHANNELS 3 Xrotation Yrotation Zrotation
					JOINT RightArm
					{
						OFFSET 0.000000 -0.000003 14.625793
						CHANNELS 3 Xrotation Yrotation Zrotation
						JOINT RightArmRoll
						{
							OFFSET 0.000000 -0.000001 7.383408
							CHANNELS 3 Xrotation Yrotation Zrotation
							JOINT RightForeArm
							{
								OFFSET 0.000000 -0.000004 21.505203
								CHANNELS 3 Xrotation Yrotation Zrotation
								JOINT RightForeArmRoll
								{
									OFFSET 0.000000 -0.000001 8.285324
									CHANNELS 3 Xrotation Yrotation Zrotation
									JOINT RightHand
									{
										OFFSET 0.000000 -0.000003 16.626801
										CHANNELS 3 Xrotation Yrotation Zrotation
										End Site
										{
											OFFSET 0.000000 0.000000 0.100006
										}
									}
								}
							}
						}
					}
				}
				JOINT LeftShoulder
				{
					OFFSET 4.347950 0.605420 11.151199
					CHANNELS 3 Xrotation Yrotation Zrotation
					JOINT LeftArm
					{
						OFFSET 0.000000 -0.000003 14.625793
						CHANNELS 3 Xrotation Yrotation Zrotation
						JOINT LeftArmRoll
						{
							OFFSET 0.000000 -0.000001 7.383408
							CHANNELS 3 Xrotation Yrotation Zrotation
							JOINT LeftForeArm
							{
								OFFSET 0.000000 -0.000004 21.505203
								CHANNELS 3 Xrotation Yrotation Zrotation
								JOINT LeftForeArmRoll
								{
									OFFSET 0.000000 -0.000001 8.285324
									CHANNELS 3 Xrotation Yrotation Zrotation
									JOINT LeftHand
									{
										OFFSET 0.000000 -0.000003 16.626801
										CHANNELS 3 Xrotation Yrotation Zrotation
										End Site
										{
											OFFSET 0.000000 0.000000 0.100006
										}
									}
								}
							}
						}
					}
				}
			}
		}
	}
	JOINT RightUpLeg
	{
		OFFSET -7.815102 1.202170 -1.433090
		CHANNELS 3 Xrotation Yrotation Zrotation
		JOINT RightUpLegRoll
		{
			OFFSET 0.000000 -0.000003 19.495903
			CHANNELS 3 Xrotation Yrotation Zrotation
			JOINT RightLeg
			{
				OFFSET 0.000000 0.000004 -24.142700
				CHANNELS 3 Xrotation Yrotation Zrotation
				JOINT RightLegRoll
				{
					OFFSET 0.000000 -0.000004 24.221703
					CHANNELS 3 Xrotation Yrotation Zrotation
					JOINT RightFoot
					{
						OFFSET 0.000000 -0.000004 20.160500
						CHANNELS 3 Xrotation Yrotation Zrotation
						JOINT RightToeBase
						{
							OFFSET 0.000000 -0.000003 16.853195
							CHANNELS 3 Xrotation Yrotation Zrotation
							End Site
							{
								OFFSET 0.007145 0.940780 8.161865
							}
						}
					}
				}
			}
		}
	}
	JOINT LeftUpLeg
	{
		OFFSET 7.815102 1.202170 -1.433090
		CHANNELS 3 Xrotation Yrotation Zrotation
		JOINT LeftUpLegRoll
		{
			OFFSET 0.000000 -0.000003 19.496002
			CHANNELS 3 Xrotation Yrotation Zrotation
			JOINT LeftLeg
			{
				OFFSET 0.000000 -0.000004 24.142601
				CHANNELS 3 Xrotation Yrotation Zrotation
				JOINT LeftLegRoll
				{
					OFFSET 0.000000 -0.000005 24.445602
					CHANNELS 3 Xrotation Yrotation Zrotation
					JOINT LeftFoot
					{
						OFFSET 0.000000 -0.000003 19.936600
						CHANNELS 3 Xrotation Yrotation Zrotation
						JOINT LeftToeBase
						{
							OFFSET 0.000000 -0.000003 16.853195
							CHANNELS 3 Xrotation Yrotation Zrotation
							End Site
							{
								OFFSET -0.032013 0.940779 8.161865
							}
						}
					}
				}
			}
		}
	}
}
MOTION
Frames: 6
Frame Time: 0.041667
50.865200 -10.873619 100.612999 -1.817896 0.883258 2.756833 -2.219912 -0.252033 -0.166796 -0.437076 -0.499121 -0.331189 1.208017 -0.503095 -0.325249 29.926921 -3.082845 2.292572 -7.770080 8.432033 1.523907 -12.852192 -69.193368 -15.591225 -41.945308 -110.383473 -22.340113 -0.000010 0.000002 0.000000 2.979077 -10.614764 -0.095080 0.000004 0.000002 -3.008909 -5.000240 -7.998733 0.000157 -6.507329 59.480340 7.752040 -14.443191 114.330420 2.670625 0.000002 -0.000003 0.000014 6.486214 8.320437 0.231934 0.000006 -0.000015 3.007549 -5.000213 7.998922 -0.000118 -0.200120 -179.927004 -1.385635 -179.999991 0.000005 -1.041984 174.521155 -1.308000 -0.423434 -0.000001 -0.000002 0.016167 68.414651 6.892447 2.178627 25.456962 -7.355619 0.000000 -0.562900 176.806168 2.279073 -0.000005 -0.000004 -1.079830 -7.995881 2.048249 0.463290 -0.000003 0.000004 -0.145866 70.383993 -6.855078 -2.127440 25.456952 7.355613 0.000001 
50.865200 -10.860418 100.611984 -1.811908 0.883803 2.757148 -2.222042 -0.251575 -0.166545 -0.440608 -0.498109 -0.331441 1.204477 -0.502083 -0.325511 29.919972 -3.084683 2.296125 -7.756802 8.435379 1.526301 -12.846181 -69.187808 -15.584349 -41.861137 -110.372797 -22.234861 -0.000010 0.000002 -0.000001 3.009727 -10.598892 -0.094290 0.000006 0.000001 -3.008910 -5.000243 -7.998731 0.000159 -6.521291 59.471523 7.767791 -14.375615 114.333105 2.583927 0.000003 -0.000003 0.000015 6.492363 8.306730 0.233305 0.000006 -0.000015 3.007549 -5.000212 7.998922 -0.000118 -0.204048 -179.928001 -1.387176 -179.999991 0.000005 -1.041985 174.522221 -1.307010 -0.423315 -0.000002 -0.000002 0.016167 68.414651 6.892447 2.178627 25.456965 -7.355619 0.000000 -0.565871 176.806154 2.278648 -0.000005 -0.000005 -1.079830 -7.992398 2.049732 0.463291 -0.000003 0.000004 -0.145866 70.382306 -6.855116 -2.127452 25.456948 7.355613 -0.000001 
50.864700 -10.868419 100.609985 -1.805735 0.884422 2.757351 -2.224211 -0.251099 -0.166288 -0.444195 -0.497074 -0.331733 1.200895 -0.501049 -0.325813 29.913025 -3.086919 2.299867 -7.743636 8.439266 1.528814 -12.839892 -69.182166 -15.577153 -41.778204 -110.362552 -22.131449 -0.000012 0.000002 0.000000 3.039748 -10.583326 -0.093572 0.000006 0.000002 -3.008910 -5.000243 -7.998733 0.000160 -6.535343 59.462295 7.783624 -14.306700 114.337722 2.496108 0.000004 -0.000003 0.000010 6.498847 8.293159 0.234656 0.000003 -0.000015 3.007550 -5.000212 7.998923 -0.000118 -0.208244 -179.928001 -1.388751 -179.999991 0.000005 -1.041985 174.523259 -1.306019 -0.423195 -0.000001 -0.000002 0.016167 68.414651 6.892447 2.178627 25.456962 -7.355619 0.000000 -0.568814 176.806154 2.278112 -0.000005 -0.000004 -1.079830 -7.988512 2.051286 0.463291 -0.000003 0.000004 -0.145866 70.380503 -6.855118 -2.127463 25.456950 7.355613 0.000000 
50.871899 -10.869317 100.610001 -1.799435 0.885094 2.757495 -2.226424 -0.250612 -0.166023 -0.447819 -0.496022 -0.332053 1.197275 -0.499999 -0.326143 29.905990 -3.089428 2.303729 -7.730525 8.443540 1.531405 -12.833356 -69.176347 -15.569677 -41.696078 -110.352600 -22.029109 -0.000013 0.000002 -0.000001 3.069343 -10.567962 -0.092909 0.000007 0.000002 -3.008910 -5.000241 -7.998733 0.000158 -6.549446 59.452746 7.799498 -14.238211 114.341390 2.409092 0.000003 -0.000003 0.000011 6.505549 8.279664 0.236009 0.000007 -0.000014 3.007550 -5.000212 7.998921 -0.000117 -0.212631 -179.928998 -1.390344 -179.999991 0.000005 -1.041985 174.524324 -1.305016 -0.423075 -0.000001 -0.000002 0.016167 68.414651 6.892447 2.178627 25.456957 -7.355618 0.000000 -0.571742 176.805157 2.277515 -0.000005 -0.000004 -1.079830 -7.984337 2.052912 0.463293 -0.000003 0.000004 -0.145866 70.378590 -6.855119 -2.127379 25.456952 7.355613 0.000001 
50.873402 -10.871222 100.610001 -1.793053 0.885796 2.757599 -2.228652 -0.250118 -0.165757 -0.451464 -0.494962 -0.332390 1.193625 -0.498940 -0.326490 29.899057 -3.092097 2.307672 -7.717461 8.448020 1.534039 -12.826763 -69.170528 -15.562140 -41.614512 -110.342894 -21.927586 -0.000011 0.000002 -0.000000 3.098668 -10.552596 -0.092288 0.000004 0.000002 -3.008911 -5.000240 -7.998732 0.000157 -6.563603 59.443109 7.815426 -14.169104 114.346055 2.321416 0.000003 -0.000002 0.000013 6.512379 8.266226 0.237351 0.000007 -0.000015 3.007549 -5.000210 7.998922 -0.000117 -0.217123 -179.929996 -1.391955 -179.999991 0.000005 -1.041985 174.525403 -1.303032 -0.422860 -0.000002 -0.000002 0.016167 68.414651 6.892446 2.178627 25.456964 -7.355619 0.000000 -0.574657 176.805170 2.276868 -0.000005 -0.000004 -1.079830 -7.979993 2.054557 0.463292 -0.000003 0.000004 -0.145866 70.376562 -6.855082 -2.127499 25.456953 7.355612 -0.000000 
50.878799 -10.874917 100.609993 -1.786664 0.886505 2.757682 -2.230892 -0.249622 -0.165489 -0.455115 -0.493898 -0.332731 1.189975 -0.497879 -0.326840 29.892033 -3.094806 2.311625 -7.704407 8.452560 1.536685 -12.820070 -69.164620 -15.554482 -41.531095 -110.333961 -21.824114 -0.000011 0.000001 -0.000001 3.127943 -10.537231 -0.091696 0.000004 0.000004 -3.008910 -5.000242 -7.998730 0.000158 -6.577751 59.433478 7.831340 -14.100023 114.350747 2.233875 0.000003 -0.000003 0.000012 6.519241 8.252797 0.238693 0.000006 -0.000015 3.007550 -5.000213 7.998921 -0.000118 -0.221641 -179.929996 -1.393561 -179.999991 0.000005 -1.041985 174.526469 -1.302042 -0.422741 -0.000001 -0.000002 0.016167 68.414651 6.892447 2.178627 25.456964 -7.355619 0.000000 -0.577569 176.805170 2.276200 -0.000005 -0.000004 -1.079830 -7.975619 2.056224 0.463294 -0.000003 0.000004 -0.145866 70.374533 -6.855082 -2.127423 25.456952 7.355613 0.000001 
